PathFileType	4	(X/Y/Z)	C:\Users\GVLAB1\Desktop\Emotion\trc\EMLATRE05.4.trc																																																																																																																									
DataRate	CameraRate	NumFrames	NumMarkers	Units	OrigDataRate	OrigDataStartFrame	OrigNumFrames																																																																																																																					
30	30	7	41	mm	30	265	302																																																																																																																					
Frame#	Time	EMLA_LFHD			EMLA_RFHD			EMLA_LBHD			EMLA_RBHD			EMLA_LFTShould			EMLA_RFTShould			EMLA_LRRShould			EMLA_RRRShould			EMLA_T10			EMLA_STRN			EMLA_TRUN			EMLA_LSHO			EMLA_LUPA			EMLA_LELB			EMLA_LFRM			EMLA_LWRA			EMLA_LWRB			EMLA_LFIN			EMLA_RSHO			EMLA_RUPA			EMLA_RELB			EMLA_RFRM			EMLA_RWRA			EMLA_RWRB			EMLA_RFIN			EMLA_LFWT			EMLA_RFWT			EMLA_LBWT			EMLA_RBWT			EMLA_LHTI			EMLA_LKNE			EMLA_LSHN			EMLA_LANK			EMLA_LHEE			EMLA_LTOE			EMLA_RTHI			EMLA_RKNE			EMLA_RSHN			EMLA_RANK			EMLA_RHEE			EMLA_RTOE		
		X1	Y1	Z1	X2	Y2	Z2	X3	Y3	Z3	X4	Y4	Z4	X5	Y5	Z5	X6	Y6	Z6	X7	Y7	Z7	X8	Y8	Z8	X9	Y9	Z9	X10	Y10	Z10	X11	Y11	Z11	X12	Y12	Z12	X13	Y13	Z13	X14	Y14	Z14	X15	Y15	Z15	X16	Y16	Z16	X17	Y17	Z17	X18	Y18	Z18	X19	Y19	Z19	X20	Y20	Z20	X21	Y21	Z21	X22	Y22	Z22	X23	Y23	Z23	X24	Y24	Z24	X25	Y25	Z25	X26	Y26	Z26	X27	Y27	Z27	X28	Y28	Z28	X29	Y29	Z29	X30	Y30	Z30	X31	Y31	Z31	X32	Y32	Z32	X33	Y33	Z33	X34	Y34	Z34	X35	Y35	Z35	X36	Y36	Z36	X37	Y37	Z37	X38	Y38	Z38	X39	Y39	Z39	X40	Y40	Z40	X41	Y41	Z41
																																																																																																																												
265	1.32	237.02505	1409.15784	1563.62488	79.78788	1376.85632	1506.30688	248.87276	1543.39307	1496.17822	67.81324	1510.58032	1430.96582	301.03238	1337.02026	1383.88086	159.76601	1312.96106	1385.39453	287.09528	1423.3429	1255.5813	133.67764	1398.99756	1254.74414	237.13271	1261.80542	1160.93445	234.53584	1253.39783	1403.50574	239.12318	1148.61145	1396.16931	422.74887	1388.94666	1342.37622	491.76309	1215.00195	1298.71362	516.46252	1072.04468	1276.11792	510.11526	931.60022	1284.24438	424.49634	799.15436	1379.66675	473.48941	771.30225	1314.896	473.44928	745.55896	1379.75537	30.05435	1350.55762	1328.48804	-26.91259	1158.0437	1307.22266	-49.92764	1019.36487	1274.10022	-49.34424	913.14648	1273.29272	19.70925	763.18378	1390.9613	-22.78274	737.09772	1319.78809	-36.70093	711.26953	1377.87207	336.19891	940.66998	1348.5	102.44482	934.2724	1322.05774	331.05884	965.91345	1145.65356	153.3672	983.34454	1139.90588	385.14627	664.54712	1250.40906	391.06201	495.74063	1382.9231	365.02893	319.396	1435.13452	371.90375	132.65779	1402.36975	308.31387	45.17992	1354.81836	334.70074	60.56816	1550.98816	139.19089	690.46167	1095.03125	108.56417	481.35385	1127.19373	164.74632	260.40625	1110.08826	152.68124	111.4817	1006.41748	218.60744	72.33162	954.56628	167.58957	38.437	1146.36401
266	1.325	243.39761	1404.89734	1588.45032	85.7144	1374.61975	1530.44812	256.6962	1539.35986	1521.63794	75.51814	1509.05103	1456.33765	306.66971	1332.828	1409.52563	165.36459	1310.70044	1409.09143	295.02829	1419.75427	1281.32251	141.40755	1396.95386	1278.59595	244.71338	1259.06738	1185.46375	239.1651	1249.8645	1428.0437	242.79428	1145.01599	1420.42871	429.39368	1383.86401	1369.56897	496.98529	1209.43201	1324.81067	520.04944	1066.45239	1301.59473	513.98358	926.36932	1306.47034	428.34222	790.90448	1397.55933	477.88785	764.91888	1332.28564	477.46704	737.66943	1396.73865	36.75571	1349.40967	1350.94275	-21.63114	1157.78394	1328.61584	-45.77689	1019.22699	1294.85413	-43.92323	912.03357	1296.71411	27.89676	767.13373	1419.10645	-14.33757	738.01929	1348.9696	-27.44972	713.74445	1407.83923	338.87912	936.9093	1373.97266	105.7339	931.16187	1343.18225	337.69235	963.69537	1171.31018	160.3894	981.47491	1162.80847	388.84894	661.8396	1275.27454	391.07098	491.81769	1405.87463	364.61362	318.57523	1465.06494	369.53122	130.94186	1442.80872	305.54022	42.06005	1399.45557	330.20657	62.93348	1595.33203	145.09131	691.27051	1112.63538	111.35141	481.94388	1139.19482	165.62991	261.12875	1116.54822	152.96904	114.86214	1008.89325	219.06657	76.58616	956.43219	167.2757	38.26404	1146.85767
267	1.33	250.73627	1399.37805	1614.27527	92.61797	1371.3855	1555.54956	265.75244	1534.19434	1548.48816	84.39969	1506.35303	1482.77429	313.3324	1327.62695	1436.17615	171.40932	1307.65735	1433.76489	304.24683	1415.48694	1308.19055	150.52776	1394.3551	1303.23474	253.61301	1255.4187	1211.24097	244.5764	1245.52954	1453.97937	247.03995	1140.58557	1445.82141	437.12344	1377.4104	1398.19214	503.00836	1202.30334	1352.99487	524.07996	1058.979	1328.82117	518.46472	919.57672	1329.89099	432.74524	780.66376	1415.63171	483.37781	756.9549	1350.2395	482.1424	727.56061	1413.49182	44.53378	1347.573	1374.02356	-15.50749	1156.7843	1349.90967	-40.69635	1018.52319	1315.0835	-37.83072	910.60718	1319.34058	35.74372	770.01221	1445.59314	-5.94814	738.36279	1376.30896	-18.64447	715.43854	1435.82019	342.27222	933.00342	1401.35718	109.71717	927.52466	1366.40442	345.80466	960.18829	1198.68982	168.30415	978.12933	1187.42627	390.51273	657.9325	1302.56299	392.87744	487.45667	1430.40344	364.15485	313.80838	1489.44556	367.76773	125.63307	1464.65381	302.96988	44.39114	1416.62781	329.5842	43.32521	1614.59082	151.95111	691.51001	1132.98682	114.45258	482.1748	1153.20569	166.84525	261.7261	1123.98071	152.90263	118.72645	1011.87842	218.87859	81.45649	958.57861	167.0629	38.00399	1147.40161
268	1.335	258.93417	1393.4751	1641.74817	100.37302	1368.2146	1581.89807	275.72314	1528.9574	1577.84912	94.30674	1504.1095	1511.51111	320.98413	1322.25989	1463.50598	177.70724	1304.47839	1459.36914	314.61963	1412.32703	1336.71204	160.4442	1392.83704	1328.88208	263.35501	1252.93286	1237.84814	250.79179	1241.47717	1480.22083	251.9614	1136.43689	1473.13464	446.05624	1370.18311	1427.69141	509.72299	1193.72437	1382.70203	527.74866	1049.90039	1358.58313	523.04706	911.76239	1355.29968	437.95331	768.68408	1434.11511	489.7222	747.98187	1368.61267	487.64075	715.7854	1430.45349	53.06069	1345.84021	1397.82886	-8.47949	1155.71411	1371.20129	-34.40512	1017.83649	1335.38464	-31.03018	909.59259	1341.03821	42.68766	771.84412	1470.00781	1.56891	738.51764	1401.1991	-11.05279	716.59052	1461.15564	345.67303	931.97412	1428.9696	114.57205	923.90552	1390.70044	353.98364	958.1297	1225.4873	175.43898	974.43292	1212.34827	394.34464	657.05609	1333.599	394.06577	487.00418	1461.68579	364.013	309.43311	1508.95349	364.75543	124.17979	1470.56042	301.00369	44.76859	1417.98706	321.20233	38.75124	1617.80566	158.81567	691.5014	1155.84094	117.39693	482.55115	1169.43958	168.00449	262.82806	1132.78479	151.80736	123.48195	1016.01288	217.36047	87.59584	961.24261	166.9079	37.75353	1148.2146
269	1.34	268.20462	1387.79797	1670.78259	110.11687	1366.58398	1611.0835	287.18115	1524.20422	1609.45435	105.75859	1503.20691	1542.38843	329.21109	1318.28296	1491.93738	184.13904	1302.64539	1486.35962	324.88913	1410.60168	1366.58093	170.26485	1393.67236	1356.69739	271.57101	1253.58167	1264.73218	257.40106	1238.90271	1507.48425	257.25299	1133.77673	1499.63989	454.78906	1364.12988	1457.8468	515.57062	1185.88464	1414.88464	530.3056	1041.72815	1391.67517	527.23059	905.54224	1382.65845	444.60895	757.8985	1454.9198	496.63861	740.76001	1387.71436	494.66861	705.28906	1447.48694	61.66697	1346.41162	1423.8905	-0.13266	1157.1366	1393.16858	-25.53529	1019.35187	1356.58057	-22.65768	911.29419	1361.3103	47.52031	772.92902	1490.94189	7.87942	739.31134	1421.46069	-5.67604	717.55896	1481.49365	350.48859	934.62921	1456.37048	119.86837	921.81256	1414.70215	359.05887	959.53503	1251.94958	181.21532	971.64154	1237.08386	401.20621	661.54083	1365.96985	395.73712	490.00955	1493.4563	361.68188	308.86008	1530.45508	366.98523	125.17511	1479.99512	303.25699	46.6145	1418.65808	319.41086	38.28133	1618.55969	164.24417	691.20386	1179.29858	119.33772	482.97336	1188.81921	168.69328	264.40472	1143.7594	150.80898	129.56944	1021.591	216.34824	95.59463	965.56396	166.66441	37.47002	1149.39807
270	1.345	279.43436	1382.36011	1698.63513	120.20319	1365.64648	1640.05688	300.51761	1519.28882	1639.50684	118.30172	1503.36267	1574.27075	336.5582	1315.78003	1519.82007	192.58812	1304.60461	1513.54956	334.84851	1409.89758	1395.12317	179.93982	1396.12378	1383.703	279.87445	1254.63794	1291.57361	263.53271	1237.78357	1535.25452	261.61584	1132.82166	1526.02258	462.53876	1359.9917	1487.91443	519.45721	1180.99219	1448.55701	532.25391	1036.11658	1425.15381	531.54108	901.94238	1412.39343	450.16397	748.67621	1475.30957	505.32162	737.01971	1410.59436	501.24219	697.82129	1467.80042	70.42617	1350.20166	1450.1427	9.10695	1161.57739	1418.30603	-14.87341	1023.80841	1379.58838	-13.04036	915.98328	1380.15271	49.76251	772.59772	1507.4187	13.55124	740.88403	1435.31909	-3.48548	717.98157	1494.17615	352.3746	936.4505	1485.67163	123.32534	922.08093	1437.51782	367.19196	961.36536	1281.87537	189.97112	971.41205	1262.27319	409.31863	662.48877	1392.96741	400.17831	488.46457	1516.94885	364.34814	305.41879	1545.19006	367.66888	125.38067	1485.50537	303.52704	48.33292	1419.43616	318.8793	37.81014	1618.86523	169.97368	691.21619	1203.66016	119.91933	484.47888	1209.45081	168.00626	266.95706	1156.84619	150.42645	137.47079	1028.7793	216.61192	106.22435	972.49127	166.26775	37.10358	1150.89612
271	1.35	292.72336	1378.49365	1723.19629	131.5045	1366.98926	1669.17957	314.75098	1516.46399	1667.12476	130.37392	1506.37634	1607.4176	342.69757	1315.5802	1547.3363	201.16721	1309.59399	1539.65027	344.93381	1410.95349	1423.85852	189.84053	1399.78442	1408.94983	289.409	1256.96204	1317.64111	267.99597	1239.53271	1561.79565	264.05972	1134.53833	1552.22473	469.68539	1357.67639	1517.94519	524.08282	1177.36206	1480.29712	534.61273	1032.75781	1458.59863	536.07526	900.19519	1443.79102	455.79446	742.77948	1498.46375	513.98932	735.6947	1436.57019	508.15671	693.30829	1491.41724	78.3689	1355.81763	1474.25134	18.83964	1167.4342	1445.09448	-4.8739	1029.42871	1403.26489	-4.2956	922.52216	1398.5813	51.32305	771.43402	1520.37659	17.57857	744.64655	1445.14832	-2.6171	718.85797	1501.37988	353.84296	937.59216	1514.1499	126.49115	924.09656	1459.27539	376.68387	963.23303	1311.42334	200.3087	973.07074	1286.75244	412.45645	662.44073	1415.16565	403.95618	485.45731	1533.21094	366.97934	301.95184	1555.28577	368.51767	124.50275	1489.04639	304.0448	49.81701	1420.0105	318.60583	37.4905	1619.12805	176.81787	691.67883	1228.46143	118.44908	487.18787	1232.87085	166.18311	270.23697	1172.84644	150.7726	146.97757	1038.31689	218.17326	119.04353	982.55609	166.11368	36.94554	1152.97888
